<svg width="55" height="64" viewBox="0 0 55 64" fill="none" xmlns="http://www.w3.org/2000/svg">
<g clip-path="url(#clip0_101_42)">
<path d="M21.5686 14.5634C20.8823 14.4643 20.8497 14.4313 21.1765 14.3983C21.7974 14.2992 23.2353 14.4313 24.2484 14.6625C26.6013 15.2239 28.7255 16.6769 30.9804 19.2197L31.5686 19.9132L32.4183 19.7811C36.0457 19.1867 39.7712 19.649 42.8758 21.1021C43.7255 21.4984 45.0654 22.2909 45.2288 22.4891C45.2941 22.5551 45.3922 22.9844 45.4575 23.4138C45.6863 24.9659 45.5882 26.1217 45.098 27.0133C44.8366 27.5087 44.8366 27.6408 45 28.0701C45.1307 28.4003 45.5229 28.6315 45.8823 28.6315C46.6667 28.6315 47.4837 27.3766 47.8758 25.6263L48.0392 24.9328L48.3333 25.2631C50 27.1454 51.3072 29.7543 51.5033 31.6036L51.5686 32.099L51.2745 31.6697C50.7843 30.9101 50.3268 30.4148 49.7059 29.9855C48.5948 29.2259 47.4183 28.9948 44.3137 28.8296C41.5033 28.6645 39.902 28.4334 38.3333 27.905C35.6536 27.0133 34.281 25.8575 31.1111 21.5974C29.7059 19.7151 28.8235 18.6914 27.9412 17.8327C26.0131 15.9504 24.085 14.9597 21.5686 14.5634Z" fill="#E04E39"/>
<path d="M45.915 18.7574C45.9804 17.5025 46.1438 16.6769 46.5032 15.9174C46.634 15.6201 46.7647 15.356 46.7974 15.356C46.83 15.356 46.7647 15.5871 46.6666 15.8513C46.4052 16.5778 46.3725 17.6016 46.5359 18.7574C46.7647 20.2435 46.8627 20.4416 48.4313 22.0598C49.1503 22.8193 50 23.777 50.3268 24.1733L50.8823 24.8998L50.3268 24.3714C49.6405 23.711 48.0719 22.4561 47.7124 22.2909C47.4836 22.1588 47.451 22.1588 47.2876 22.324C47.1568 22.4561 47.1242 22.6542 47.1242 23.6119C47.0915 25.098 46.8954 26.0226 46.4052 26.9803C46.1438 27.4757 46.1111 27.3766 46.3398 26.8152C46.5032 26.3859 46.5359 26.1877 46.5359 24.7677C46.5359 21.8947 46.2091 21.2012 44.2157 20.0453C43.7255 19.7481 42.8758 19.3188 42.3856 19.0876C41.8627 18.8565 41.4706 18.6583 41.5032 18.6583C41.5686 18.5923 43.4967 19.1537 44.2483 19.4839C45.3921 19.9463 45.5882 19.9793 45.7189 19.9463C45.817 19.8472 45.8823 19.583 45.915 18.7574Z" fill="#E04E39"/>
<path d="M22.9085 23.6781C21.5359 21.7627 20.6536 18.7906 20.8496 16.578L20.915 15.8845L21.2418 15.9506C21.83 16.0496 22.8431 16.4459 23.3333 16.7431C24.6405 17.5357 25.2287 18.6255 25.7843 21.3334C25.9477 22.126 26.1764 23.0507 26.2745 23.3479C26.4379 23.8432 27.0588 24.9991 27.5817 25.7256C27.9411 26.254 27.7124 26.5182 26.8954 26.4521C25.6536 26.32 23.9869 25.1642 22.9085 23.6781Z" fill="#E04E39"/>
<path d="M44.2483 38.0434C37.7778 35.4015 35.4902 33.1229 35.4902 29.2591C35.4902 28.6977 35.5229 28.2354 35.5229 28.2354C35.5555 28.2354 35.7843 28.4335 36.0784 28.6647C37.3856 29.7214 38.8562 30.1838 42.9412 30.7782C45.3268 31.1414 46.6993 31.4056 47.9412 31.8349C51.8954 33.1559 54.3464 35.8638 54.9346 39.5295C55.098 40.5862 55 42.6007 54.7385 43.6574C54.5098 44.483 53.8562 46.0021 53.6928 46.0351C53.6601 46.0351 53.5947 45.87 53.5947 45.6058C53.5294 44.2188 52.8431 42.8979 51.6993 41.8742C50.3268 40.6853 48.5621 39.7937 44.2483 38.0434Z" fill="#E04E39"/>
<path d="M39.6732 39.1331C39.6078 38.6377 39.4444 38.0103 39.3464 37.7461L39.183 37.2507L39.4771 37.614C39.902 38.1093 40.2288 38.7038 40.5229 39.5294C40.7516 40.1568 40.7516 40.355 40.7516 41.3787C40.7516 42.3694 40.719 42.6006 40.5229 43.162C40.1961 44.0536 39.8039 44.6811 39.1503 45.3746C37.9739 46.5964 36.4379 47.2569 34.2484 47.5541C33.8562 47.5872 32.7451 47.6862 31.7647 47.7523C29.3137 47.8844 27.6797 48.1486 26.2092 48.6769C26.0131 48.743 25.817 48.809 25.7843 48.776C25.719 48.71 26.732 48.1155 27.549 47.7193C28.6928 47.1579 29.8693 46.8606 32.451 46.3983C33.7255 46.2002 35.0327 45.936 35.3595 45.8039C38.5948 44.7801 40.1961 42.2373 39.6732 39.1331Z" fill="#E04E39"/>
<path d="M42.647 44.4499C41.7974 42.5675 41.6013 40.7842 42.0588 39.1C42.1242 38.9349 42.1895 38.7698 42.2549 38.7698C42.3202 38.7698 42.5163 38.8688 42.7124 39.0009C43.1046 39.2651 43.9215 39.7275 46.013 40.8833C48.6601 42.3363 50.1634 43.4591 51.2091 44.7471C52.1242 45.8699 52.6797 47.1578 52.9412 48.7429C53.1046 49.6346 53.0065 51.7811 52.7778 52.6728C52.0588 55.4798 50.4248 57.7254 48.0392 59.0133C47.6797 59.2115 47.3856 59.3436 47.3529 59.3436C47.3202 59.3436 47.451 59.0133 47.647 58.617C48.4313 56.9328 48.5294 55.3147 47.9412 53.4984C47.5817 52.3756 46.83 51.0216 45.3268 48.7429C43.5294 46.101 43.1046 45.4075 42.647 44.4499Z" fill="#E04E39"/>
<path d="M18.3007 54.5551C20.719 52.5076 23.6928 51.0546 26.4379 50.5923C27.6144 50.3941 29.5752 50.4602 30.6536 50.7574C32.3856 51.2197 33.9542 52.2104 34.7712 53.4323C35.5556 54.6212 35.915 55.6449 36.2745 57.9235C36.4052 58.8152 36.5686 59.7398 36.6013 59.938C36.8627 61.1268 37.3856 62.0515 38.0392 62.5469C39.0523 63.3064 40.817 63.3394 42.549 62.679C42.8431 62.5799 43.1046 62.4808 43.1046 62.5138C43.1699 62.5799 42.2876 63.1743 41.6993 63.4715C40.8824 63.9008 40.2288 64.0329 39.3464 64.0329C37.7778 64.0329 36.4379 63.2073 35.3595 61.5561C35.1307 61.2259 34.6732 60.2682 34.281 59.3766C33.1373 56.7017 32.549 55.9091 31.2091 55.0174C30.0327 54.2579 28.5294 54.0928 27.3856 54.6542C25.8824 55.3807 25.4902 57.3291 26.5359 58.518C26.9608 59.0133 27.7451 59.4096 28.3987 59.5087C29.6078 59.6738 30.6536 58.7161 30.6536 57.4942C30.6536 56.7017 30.3595 56.2393 29.5752 55.8761C28.5294 55.4137 27.3856 55.9421 27.4183 56.9658C27.4183 57.3952 27.6144 57.6593 28.0392 57.8575C28.3007 57.9896 28.3007 57.9896 28.1046 57.9566C27.1569 57.7584 26.9281 56.5696 27.6797 55.81C28.5948 54.8854 30.5229 55.2816 31.1765 56.5696C31.4379 57.0979 31.4706 58.1547 31.2418 58.8152C30.6863 60.2682 29.1176 61.0278 27.5163 60.5985C26.4379 60.3012 25.9804 60.004 24.6732 58.6501C22.3856 56.2724 21.5033 55.81 18.2353 55.3147L17.6144 55.2156L18.3007 54.5551Z" fill="#E04E39"/>
<path fill-rule="evenodd" clip-rule="evenodd" d="M1.11098 1.42002C8.72536 10.7657 20.4574 25.2962 21.0456 26.0888C21.5358 26.7492 21.3397 27.3767 20.5227 27.839C20.0652 28.1032 19.1175 28.3674 18.66 28.3674C18.1371 28.3674 17.5162 28.1032 17.0914 27.6739C16.7973 27.3767 15.5227 25.4943 12.6469 20.9701C10.4574 17.5026 8.59464 14.6295 8.56196 14.5965C8.43124 14.5304 8.43124 14.5304 12.4182 21.7296C14.9345 26.2539 15.7515 27.872 15.7515 28.0702C15.7515 28.4995 15.6208 28.7307 15.0979 29.3251C14.2156 30.3158 13.8234 31.4386 13.5293 33.7833C13.2025 36.3922 12.3201 38.2415 9.80379 41.3787C8.3332 43.2281 8.10444 43.5583 7.74496 44.3179C7.28745 45.2425 7.15673 45.7709 7.09137 46.9598C7.02601 48.2147 7.15673 49.0072 7.51621 50.1961C7.843 51.2528 8.20248 51.9463 9.08483 53.3003C9.83647 54.4892 10.294 55.3808 10.294 55.711C10.294 55.9752 10.3593 55.9752 11.5358 55.711C14.3463 55.0506 16.6665 53.9278 17.941 52.5408C18.7254 51.6821 18.9214 51.2198 18.9214 50.031C18.9214 49.2714 18.8888 49.1063 18.6927 48.644C18.3659 47.9174 17.745 47.323 16.4051 46.3983C14.6404 45.1765 13.8888 44.1858 13.6927 42.8648C13.5293 41.742 13.7254 40.9825 14.7057 38.902C15.7188 36.7554 15.9803 35.8638 16.1437 33.6842C16.2417 32.2972 16.4051 31.7358 16.7973 31.3065C17.2221 30.8442 17.5816 30.6791 18.5946 30.547C20.2613 30.3158 21.3397 29.8865 22.1894 29.0609C22.941 28.3674 23.2678 27.6739 23.3005 26.6502L23.3332 25.8906L22.9084 25.4283C21.3724 23.645 0.0979059 0 -0.000133304 0C-0.032813 0 0.490063 0.627451 1.11098 1.42002ZM11.1437 48.3798C11.5031 47.7523 11.3071 46.9598 10.7188 46.5635C10.1633 46.2002 9.31359 46.3653 9.31359 46.8607C9.31359 46.9928 9.37895 47.1249 9.57503 47.1909C9.86915 47.356 9.90183 47.5212 9.67307 47.8844C9.44431 48.2477 9.44431 48.5779 9.73843 48.8091C10.1959 49.1723 10.8169 48.9742 11.1437 48.3798Z" fill="#E04E39"/>
<path fill-rule="evenodd" clip-rule="evenodd" d="M24.3791 31.0092C23.5947 31.2404 22.8431 32.099 22.6144 32.9576C22.4836 33.486 22.549 34.4437 22.7778 34.7409C23.1372 35.2032 23.464 35.3353 24.3791 35.3353C26.1764 35.3353 27.7124 34.5427 27.8758 33.585C28.0392 32.7925 27.3529 31.7027 26.4052 31.2073C25.915 30.9431 24.9019 30.8441 24.3791 31.0092ZM26.4706 32.6604C26.732 32.2641 26.634 31.8348 26.1438 31.5376C25.2614 30.9762 23.9215 31.4385 23.9215 32.2971C23.9215 32.7264 24.6078 33.1888 25.2614 33.1888C25.6862 33.1888 26.2745 32.9246 26.4706 32.6604Z" fill="#E04E39"/>
</g>
<defs>
<clipPath id="clip0_101_42">
<rect width="55" height="64" fill="white"/>
</clipPath>
</defs>
</svg>
