<svg width="20" height="18" viewBox="0 0 20 18" fill="none" xmlns="http://www.w3.org/2000/svg">
<path d="M9.98734 17.777C6.81558 17.777 3.93959 15.8081 2.75647 12.8198C2.65578 12.5713 2.5488 12.4375 2.25931 12.3802C1.03843 12.138 0.20773 11.0676 0.220316 9.81238C0.232902 8.59539 1.11395 7.55044 2.33483 7.32743C2.55509 7.2892 2.65578 7.18725 2.725 6.98973C2.92009 6.44176 3.1907 5.93203 3.51795 5.44778C3.59346 5.33946 3.61234 5.25663 3.54941 5.12283C2.74388 3.56176 2.90121 2.07079 3.92071 0.662649C4.00252 0.547959 4.10321 0.43964 4.17873 0.32495C4.27942 0.165658 4.36123 0.197517 4.46192 0.331322C4.84581 0.860171 5.26116 1.35716 5.78349 1.75221C6.17367 2.0453 6.60161 2.25557 7.0673 2.39575C7.20575 2.43398 7.33791 2.42761 7.48265 2.383C10.3083 1.47822 12.8696 2.0007 15.1415 3.91858C16.1295 4.75327 16.828 5.8046 17.2811 7.01521C17.363 7.23185 17.4888 7.29557 17.6902 7.3338C18.93 7.56955 19.7921 8.63999 19.7795 9.90796C19.7607 11.1504 18.8356 12.2336 17.621 12.412C17.4511 12.4375 17.363 12.5012 17.3 12.6605C16.4127 14.9288 14.8394 16.4835 12.5738 17.3246C11.7431 17.6368 10.8747 17.777 9.98734 17.777ZM10.2705 16.7575C10.8055 16.7511 11.5984 16.6237 12.3599 16.3242C14.4681 15.4959 15.8463 13.9667 16.526 11.7876C16.6518 11.3926 16.6518 11.3862 17.0672 11.4117C17.5958 11.4499 18.0489 11.2842 18.395 10.8765C18.8104 10.3858 18.8796 9.70406 18.5964 9.1561C18.2881 8.56353 17.6965 8.23858 16.9791 8.33415C16.6078 8.37876 16.6267 8.30229 16.5511 8.02194C16.2365 6.89415 15.6953 5.88743 14.8709 5.07822C12.7941 3.03291 10.3586 2.51044 7.60852 3.42796C7.4386 3.4853 7.28127 3.50442 7.10506 3.46619C6.11074 3.24955 5.27374 2.75893 4.56261 2.03893C4.36753 1.84141 4.36123 1.84141 4.26054 2.10265C3.87036 3.17946 4.0214 4.16707 4.71994 5.06548C4.8521 5.23114 4.86469 5.33946 4.72624 5.5115C4.1158 6.26336 3.67528 7.11716 3.42984 8.06017C3.3732 8.28318 3.2851 8.35964 3.03966 8.32778C1.82508 8.17486 0.937739 9.2007 1.27757 10.3349C1.49154 11.0485 2.10198 11.4308 2.97044 11.3989C3.38579 11.3862 3.31656 11.3097 3.44243 11.7366C4.36753 14.7696 6.94144 16.7448 10.2705 16.7575Z" fill="#E04E39"/>
<path d="M9.98742 18C8.38895 18 6.83453 17.5158 5.50667 16.6046C4.17251 15.6934 3.15301 14.4127 2.55516 12.9027C2.47964 12.7115 2.42301 12.6414 2.22162 12.6032C0.900054 12.3419 -0.0124578 11.195 0.000128595 9.81239C0.012715 8.48708 0.981866 7.35292 2.29714 7.1108C2.4293 7.08531 2.47335 7.05345 2.5174 6.91327C2.71249 6.37168 2.98939 5.83646 3.33552 5.32035C3.36069 5.28212 3.36698 5.26301 3.36698 5.26301C3.36698 5.26301 3.36698 5.25027 3.3544 5.22478C2.5237 3.61911 2.65585 2.03894 3.74457 0.541593C3.78233 0.490619 3.82009 0.439646 3.86415 0.388673C3.91449 0.324956 3.95854 0.267611 4.00259 0.210265C4.02777 0.159292 4.12846 0.00637168 4.30467 0C4.48088 0 4.59415 0.146549 4.63821 0.203894C5.08502 0.821947 5.4752 1.24885 5.91572 1.58018C6.27444 1.85416 6.68349 2.05805 7.13031 2.18549C7.21841 2.21097 7.30652 2.21097 7.4135 2.17274C10.3021 1.24885 12.9452 1.78407 15.28 3.75292C16.2617 4.58124 17.0043 5.65168 17.4826 6.94513C17.5267 7.05982 17.5707 7.09168 17.728 7.12354C19.0811 7.37841 20.0125 8.53168 19.9999 9.92071C19.9873 11.2779 18.9804 12.4439 17.6588 12.6414C17.5581 12.6542 17.5455 12.6733 17.5078 12.7561C16.6016 15.0754 14.9716 16.6874 12.6557 17.5476C11.8376 17.8407 10.9377 18 9.98742 18ZM9.98742 17.554C10.8873 17.554 11.7306 17.4074 12.4984 17.1207C14.6947 16.3051 16.2365 14.7823 17.0924 12.5841C17.1868 12.3483 17.3316 12.2336 17.5833 12.1954C18.6909 12.0297 19.5342 11.0485 19.5468 9.91434C19.5594 8.74195 18.7727 7.77345 17.6399 7.55681C17.426 7.51858 17.1868 7.42938 17.0672 7.09805C16.6141 5.88106 15.9156 4.87434 14.9905 4.09062C12.7879 2.23009 10.2832 1.72673 7.54566 2.59965C7.35057 2.66336 7.18065 2.66336 7.00445 2.61239C6.50728 2.46584 6.05417 2.23646 5.65141 1.93699C5.19201 1.58655 4.77666 1.1469 4.31725 0.516106C4.2795 0.573451 4.24174 0.624425 4.20398 0.669026C4.16622 0.713628 4.13475 0.75823 4.10329 0.802832C3.10896 2.17274 2.98939 3.5554 3.75087 5.02726C3.87673 5.27575 3.78863 5.46053 3.70682 5.58159C3.37957 6.06584 3.12155 6.5692 2.93905 7.07257C2.83836 7.35929 2.66844 7.49947 2.37895 7.55681C1.26506 7.75434 0.453238 8.71009 0.440652 9.81876C0.428065 10.9784 1.19583 11.9469 2.30343 12.1635C2.69361 12.24 2.85094 12.4503 2.96422 12.737C4.10329 15.617 6.92263 17.554 9.98742 17.554ZM10.2706 16.9805C6.89117 16.9678 4.19768 14.9926 3.24112 11.8131C3.22853 11.7685 3.21595 11.7239 3.20336 11.692C3.19707 11.6665 3.19077 11.6474 3.18448 11.6219C3.17819 11.6219 3.1656 11.6219 3.15931 11.6219C3.11526 11.6283 3.05862 11.6283 2.9831 11.6283C2.01395 11.6602 1.3154 11.2142 1.06997 10.405C0.887468 9.80602 1.00075 9.20071 1.38463 8.74195C1.7811 8.26407 2.41042 8.02832 3.0712 8.11115C3.15931 8.12389 3.18448 8.11115 3.18448 8.11115C3.18448 8.11115 3.20336 8.09204 3.22224 8.0092C3.46767 7.05345 3.91449 6.16779 4.56269 5.3777C4.60674 5.32035 4.61303 5.30124 4.61303 5.30124C4.61303 5.30124 4.60674 5.27575 4.5564 5.20566C3.80751 4.24991 3.64388 3.17947 4.05923 2.02619C4.11587 1.8669 4.17251 1.71398 4.32984 1.68212C4.48717 1.65027 4.59415 1.75858 4.72002 1.87965C5.42486 2.59965 6.22409 3.04566 7.14919 3.24319C7.27505 3.26867 7.40092 3.2623 7.53937 3.21133C10.3902 2.25558 12.9075 2.82903 15.022 4.91257C15.8401 5.7154 16.4191 6.74124 16.7589 7.95823C16.7652 7.99009 16.7715 8.01557 16.7841 8.04106C16.7904 8.06655 16.7966 8.09841 16.8029 8.11752C16.8281 8.11752 16.8722 8.11752 16.9477 8.10478C17.7406 8.00283 18.4266 8.35964 18.7853 9.04779C19.1188 9.68495 19.0307 10.4623 18.5587 11.0166C18.1811 11.469 17.6714 11.6729 17.0484 11.6283C16.9791 11.6219 16.8596 11.6156 16.8155 11.6219C16.7966 11.6602 16.7652 11.7494 16.74 11.845V11.8513C16.0352 14.1069 14.5877 15.6807 12.4418 16.5281C11.6236 16.8531 10.7866 16.9742 10.2706 16.9805ZM3.21595 11.1696C3.47397 11.1696 3.54319 11.2715 3.625 11.5582C3.63759 11.5901 3.64388 11.6347 3.66276 11.6793C4.56269 14.6612 7.09884 16.5218 10.2706 16.5281C10.7426 16.5218 11.5167 16.4135 12.2844 16.1076C14.2982 15.3111 15.6576 13.8329 16.3247 11.7111V11.7048C16.4757 11.2142 16.5764 11.1441 17.0861 11.1823C17.5644 11.2142 17.942 11.0676 18.2315 10.7235C18.5839 10.303 18.6531 9.72956 18.4014 9.25168C18.1245 8.7292 17.6211 8.47434 17.0043 8.5508C16.5575 8.60814 16.4379 8.46796 16.3561 8.15575C16.3498 8.13027 16.3435 8.10478 16.3372 8.07929C16.0226 6.93876 15.4751 5.98301 14.7136 5.23115C12.7312 3.27504 10.365 2.73982 7.67782 3.63186C7.45755 3.70195 7.26247 3.72106 7.05479 3.67646C6.07305 3.46619 5.19201 2.98195 4.44312 2.23646C4.10329 3.22407 4.24803 4.10336 4.88993 4.93168C5.02838 5.10372 5.14795 5.34584 4.89623 5.65805C4.29208 6.40354 3.87044 7.23186 3.64388 8.12389C3.55578 8.46796 3.36069 8.60177 3.01456 8.55717C2.49223 8.49345 2.02024 8.66549 1.71817 9.03504C1.43497 9.37274 1.35316 9.8315 1.49161 10.2775C1.67412 10.8892 2.20274 11.2142 2.97051 11.1887C3.03344 11.1887 3.08379 11.1823 3.12784 11.1823C3.15931 11.1759 3.19077 11.1696 3.21595 11.1696Z" fill="#E04E39"/>
<path d="M9.98644 14.3936C8.56418 14.3427 7.4377 13.7373 6.65105 12.5204C6.44338 12.1954 6.47484 11.9023 6.73916 11.7239C6.99718 11.5519 7.28667 11.6347 7.49434 11.9596C8.09849 12.8835 8.94807 13.3742 10.0494 13.3614C11.0248 13.3487 11.7989 12.9154 12.3841 12.1253C12.4408 12.0488 12.4848 11.966 12.5415 11.8896C12.7303 11.6219 13.0135 11.5519 13.2589 11.7111C13.498 11.8704 13.561 12.1508 13.3973 12.4248C12.9379 13.2021 12.296 13.7692 11.4653 14.1005C10.9934 14.2917 10.5025 14.4 9.98644 14.3936Z" fill="#E04E39"/>
<path d="M10.0623 14.6166C10.0372 14.6166 10.012 14.6166 9.98052 14.6166H9.97422C8.45757 14.5593 7.27445 13.8966 6.46263 12.6414C6.18573 12.2145 6.24866 11.7812 6.61366 11.5391C6.97867 11.297 7.39402 11.4117 7.67092 11.8386C8.2373 12.7051 9.01766 13.1384 9.9994 13.1384C10.012 13.1384 10.0246 13.1384 10.0372 13.1384C10.9119 13.1257 11.6419 12.7434 12.1957 11.9915C12.2209 11.9533 12.2461 11.915 12.2775 11.8704C12.3027 11.8322 12.3279 11.794 12.353 11.7557C12.6111 11.3926 13.0264 11.297 13.3663 11.52C13.7061 11.7494 13.7879 12.1635 13.5739 12.5331C13.0831 13.3614 12.3971 13.954 11.5349 14.3044C11.0315 14.5147 10.5469 14.6166 10.0623 14.6166ZM9.9931 14.1706C10.4399 14.1834 10.893 14.0878 11.3776 13.8966C12.1517 13.5844 12.7621 13.0556 13.2026 12.3101C13.3033 12.1444 13.2781 11.9915 13.1334 11.9023C12.932 11.7685 12.7747 11.9405 12.7181 12.0234C12.6992 12.0552 12.674 12.0871 12.6551 12.1189C12.6237 12.1699 12.5922 12.2145 12.5544 12.2655C11.9188 13.1257 11.0755 13.5717 10.056 13.578C8.89809 13.5908 7.97928 13.0874 7.3185 12.0743C7.17376 11.8577 7.02272 11.8003 6.87168 11.9023C6.81504 11.9405 6.63884 12.0616 6.84651 12.3865C7.57652 13.5334 8.6086 14.1133 9.9931 14.1706Z" fill="#E04E39"/>
<path d="M7.64572 9.58939C7.65202 10.0418 7.30589 10.405 6.86537 10.4113C6.43743 10.4177 6.07243 10.0482 6.06614 9.60851C6.05984 9.16886 6.42485 8.7993 6.85908 8.7993C7.28701 8.80567 7.64572 9.16249 7.64572 9.58939Z" fill="#E04E39"/>
<path d="M6.85329 10.6343C6.59527 10.6343 6.34984 10.5324 6.16104 10.3413C5.96596 10.1501 5.85268 9.88249 5.84639 9.60851C5.84639 9.33452 5.94708 9.07329 6.14216 8.87576C6.33725 8.67824 6.58898 8.57629 6.85329 8.57629H6.85959C7.40709 8.57629 7.8602 9.03506 7.8665 9.58939C7.87279 10.1628 7.43227 10.6216 6.87217 10.6343C6.86588 10.6343 6.85959 10.6343 6.85329 10.6343ZM6.85959 9.02231C6.70855 9.02231 6.5701 9.08603 6.46312 9.19435C6.34984 9.30904 6.2932 9.44921 6.2932 9.60851C6.2932 9.76143 6.36243 9.91435 6.46941 10.029C6.57639 10.1374 6.72114 10.1947 6.86588 10.1947C7.18683 10.1883 7.43227 9.92709 7.42597 9.59576C7.42597 9.28355 7.16795 9.02231 6.85959 9.02231Z" fill="#E04E39"/>
<path d="M13.9265 9.60214C13.9265 10.0418 13.5615 10.4177 13.1336 10.4113C12.6931 10.405 12.3469 10.0482 12.3469 9.59577C12.3469 9.16886 12.6993 8.80567 13.1273 8.7993C13.5552 8.79293 13.9202 9.16249 13.9265 9.60214Z" fill="#E04E39"/>
<path d="M13.1399 10.6343H13.1336C12.5672 10.628 12.1267 10.1756 12.1267 9.59576C12.1267 9.04143 12.5735 8.58267 13.121 8.57629C13.1273 8.57629 13.1336 8.57629 13.1336 8.57629C13.3979 8.57629 13.6433 8.67824 13.8384 8.86939C14.0335 9.06691 14.1405 9.32178 14.1468 9.59576C14.1468 9.86975 14.0398 10.1374 13.8447 10.3285C13.6496 10.526 13.3979 10.6343 13.1399 10.6343ZM13.1336 9.02231H13.1273C12.8252 9.02868 12.5672 9.28992 12.5672 9.59576C12.5672 9.92709 12.8189 10.182 13.1336 10.1883C13.2783 10.1883 13.4168 10.131 13.5301 10.0163C13.6433 9.9016 13.7063 9.74868 13.7063 9.59576C13.7063 9.44284 13.6433 9.29629 13.5301 9.18797C13.4231 9.08603 13.2846 9.02231 13.1336 9.02231Z" fill="#E04E39"/>
</svg>
