<svg width="22" height="22" viewBox="0 0 22 22" fill="none" xmlns="http://www.w3.org/2000/svg">
<path fill-rule="evenodd" clip-rule="evenodd" d="M3.22222 2C2.54721 2 2 2.54721 2 3.22222V18.7778C2 19.4528 2.54721 20 3.22222 20H18.7778C19.4528 20 20 19.4528 20 18.7778V3.22222C20 2.54721 19.4528 2 18.7778 2H3.22222ZM0 3.22222C0 1.44264 1.44264 0 3.22222 0H18.7778C20.5574 0 22 1.44264 22 3.22222V18.7778C22 20.5574 20.5574 22 18.7778 22H3.22222C1.44264 22 0 20.5574 0 18.7778V3.22222ZM4.44444 5.44444C4.44444 4.89216 4.89216 4.44444 5.44444 4.44444H8.77778C9.33006 4.44444 9.77778 4.89216 9.77778 5.44444V15.4444C9.77778 15.9967 9.33006 16.4444 8.77778 16.4444H5.44444C4.89216 16.4444 4.44444 15.9967 4.44444 15.4444V5.44444ZM6.44444 6.44444V14.4444H7.77778V6.44444H6.44444ZM12.2222 5.44444C12.2222 4.89216 12.6699 4.44444 13.2222 4.44444H16.5556C17.1078 4.44444 17.5556 4.89216 17.5556 5.44444V11C17.5556 11.5523 17.1078 12 16.5556 12H13.2222C12.6699 12 12.2222 11.5523 12.2222 11V5.44444ZM14.2222 6.44444V10H15.5556V6.44444H14.2222Z" fill="#E04E39"/>
</svg>
