<svg width="19" height="20" viewBox="0 0 19 20" fill="none" xmlns="http://www.w3.org/2000/svg">
<path fill-rule="evenodd" clip-rule="evenodd" d="M2.65303 4.16675C2.68455 4.20513 2.74198 4.2634 2.84414 4.34008C3.11763 4.54534 3.57686 4.77274 4.23411 4.98139C5.53705 5.39502 7.39898 5.66675 9.5 5.66675C11.601 5.66675 13.463 5.39502 14.7659 4.98139C15.4231 4.77274 15.8824 4.54534 16.1559 4.34008C16.258 4.2634 16.3154 4.20513 16.347 4.16675C16.3154 4.12836 16.258 4.0701 16.1559 3.99342C15.8824 3.78815 15.4231 3.56076 14.7659 3.35211C13.463 2.93848 11.601 2.66675 9.5 2.66675C7.39898 2.66675 5.53705 2.93848 4.23411 3.35211C3.57686 3.56076 3.11763 3.78815 2.84414 3.99342C2.74198 4.0701 2.68455 4.12837 2.65303 4.16675ZM16.375 6.50673C16.0623 6.64893 15.7245 6.77544 15.371 6.88764C13.8238 7.37883 11.7482 7.66675 9.5 7.66675C7.25177 7.66675 5.17621 7.37883 3.62895 6.88764C3.27552 6.77544 2.93773 6.64893 2.625 6.50673V9.96359C2.64229 9.99302 2.69582 10.0653 2.84262 10.1761C3.11358 10.3806 3.56968 10.6075 4.22488 10.8158C5.52379 11.2288 7.38533 11.5001 9.5 11.5001C11.6147 11.5001 13.4762 11.2288 14.7751 10.8158C15.4303 10.6075 15.8864 10.3806 16.1574 10.1761C16.3042 10.0653 16.3577 9.99302 16.375 9.96359V6.50673ZM16.375 12.3444C16.0653 12.4853 15.7309 12.6106 15.3811 12.7218C13.8363 13.213 11.7603 13.5001 9.5 13.5001C7.23967 13.5001 5.16371 13.213 3.61887 12.7218C3.26907 12.6106 2.93474 12.4853 2.625 12.3444V15.7969C2.64229 15.8264 2.69582 15.8986 2.84262 16.0094C3.11358 16.2139 3.56968 16.4409 4.22488 16.6492C5.52379 17.0622 7.38533 17.3334 9.5 17.3334C11.6147 17.3334 13.4762 17.0622 14.7751 16.6492C15.4303 16.4409 15.8864 16.2139 16.1574 16.0094C16.3042 15.8986 16.3577 15.8264 16.375 15.7969V12.3444ZM18.375 15.8334C18.375 16.635 17.8683 17.2238 17.3622 17.6058C16.8401 17.9998 16.1478 18.3114 15.3811 18.5552C13.8363 19.0463 11.7603 19.3334 9.5 19.3334C7.23967 19.3334 5.16371 19.0463 3.61887 18.5552C2.85219 18.3114 2.15986 17.9998 1.63785 17.6058C1.13168 17.2238 0.625 16.635 0.625 15.8334V4.16675C0.625 3.36238 1.13741 2.77376 1.64357 2.39385C2.16708 2.00093 2.86111 1.68962 3.62895 1.44586C5.17621 0.954664 7.25177 0.666748 9.5 0.666748C11.7482 0.666748 13.8238 0.954664 15.371 1.44586C16.1389 1.68962 16.8329 2.00093 17.3564 2.39385C17.8626 2.77376 18.375 3.36238 18.375 4.16675V15.8334Z" fill="#E04E39"/>
</svg>
