<svg width="20" height="20" viewBox="0 0 20 20" fill="none" xmlns="http://www.w3.org/2000/svg">
<path fill-rule="evenodd" clip-rule="evenodd" d="M2 2V18H18V2H2ZM1 0C0.447715 0 0 0.447716 0 1V19C0 19.5523 0.447716 20 1 20H19C19.5523 20 20 19.5523 20 19V1C20 0.447715 19.5523 0 19 0H1Z" fill="#E04E39"/>
<path fill-rule="evenodd" clip-rule="evenodd" d="M19 8H1V6H19V8Z" fill="#E04E39"/>
<path fill-rule="evenodd" clip-rule="evenodd" d="M13.2929 10.2929C13.6834 9.90237 14.3166 9.90237 14.7071 10.2929L16.7071 12.2929C17.0976 12.6834 17.0976 13.3166 16.7071 13.7071L14.7071 15.7071C14.3166 16.0976 13.6834 16.0976 13.2929 15.7071C12.9024 15.3166 12.9024 14.6834 13.2929 14.2929L14.5858 13L13.2929 11.7071C12.9024 11.3166 12.9024 10.6834 13.2929 10.2929Z" fill="#E04E39"/>
<path fill-rule="evenodd" clip-rule="evenodd" d="M6.70711 10.2929C6.31658 9.90237 5.68342 9.90237 5.29289 10.2929L3.29289 12.2929C2.90237 12.6834 2.90237 13.3166 3.29289 13.7071L5.29289 15.7071C5.68342 16.0976 6.31658 16.0976 6.70711 15.7071C7.09763 15.3166 7.09763 14.6834 6.70711 14.2929L5.41421 13L6.70711 11.7071C7.09763 11.3166 7.09763 10.6834 6.70711 10.2929Z" fill="#E04E39"/>
<path fill-rule="evenodd" clip-rule="evenodd" d="M10.81 10.0352C11.3483 10.1586 11.6669 10.6906 11.5216 11.2234L10.4307 15.2234C10.2854 15.7562 9.73118 16.0881 9.19285 15.9648C8.65452 15.8414 8.33592 15.3094 8.48123 14.7766L9.57214 10.7766C9.71746 10.2438 10.2717 9.91187 10.81 10.0352Z" fill="#E04E39"/>
<path d="M5 4C5 4.55228 4.55228 5 4 5C3.44772 5 3 4.55228 3 4C3 3.44772 3.44772 3 4 3C4.55228 3 5 3.44772 5 4Z" fill="#E04E39"/>
<path d="M8 4C8 4.55228 7.55228 5 7 5C6.44772 5 6 4.55228 6 4C6 3.44772 6.44772 3 7 3C7.55228 3 8 3.44772 8 4Z" fill="#E04E39"/>
<path d="M11 4C11 4.55228 10.5523 5 10 5C9.44771 5 9 4.55228 9 4C9 3.44772 9.44771 3 10 3C10.5523 3 11 3.44772 11 4Z" fill="#E04E39"/>
</svg>
